<?xml version="1.0" encoding="utf-8"?>
<!-- Generator: Adobe Illustrator 21.1.0, SVG Export Plug-In . SVG Version: 6.00 Build 0)  -->
<svg version="1.1" id="Layer_1" xmlns="http://www.w3.org/2000/svg" xmlns:xlink="http://www.w3.org/1999/xlink" x="0px" y="0px"
	 viewBox="0 0 128 128" style="enable-background:new 0 0 128 128;" xml:space="preserve">
<style type="text/css">
	.st0{fill:#231F20;}
</style>
<g>
	<path class="st0" d="M82,64c0,9.9-8.1,18-18,18s-18-8.1-18-18c0-0.3,0-0.7,0.1-1c-7.7-0.9-15-2.3-21.7-4.2C24.1,60.5,24,62.2,24,64
		c0,22.1,17.9,40,40,40s40-17.9,40-40c0-1.8-0.1-3.5-0.4-5.3c-6.7,1.9-14,3.4-21.7,4.2C82,63.3,82,63.7,82,64z"/>
</g>
</svg>
