<?xml version="1.0" encoding="utf-8"?>
<svg version="1.1" id="Layer_1" xmlns="http://www.w3.org/2000/svg" xmlns:xlink="http://www.w3.org/1999/xlink" x="0px" y="0px"
	 viewBox="0 0 128 128" style="enable-background:new 0 0 128 128;" xml:space="preserve">
<style type="text/css">
	.eye{fill:#000000;}
</style>
<path class="eye" d="M37.5,63.1c0,6.4-5.2,11.6-11.6,11.6s-11.6-5.2-11.6-11.6c0-0.2,0-0.5,0.1-0.6c-5-0.6-9.7-1.5-14-2.7C0.1,60.9,0,62,0,63.1
	C0,77.4,11.6,89,25.9,89s25.9-11.6,25.9-25.9c0-1.2-0.1-2.3-0.3-3.4c-4.3,1.2-9.1,2.2-14,2.7C37.5,62.7,37.5,62.9,37.5,63.1z"/>
<path class="eye" d="M113.8,63.1c0,6.4-5.2,11.6-11.6,11.6c-6.4,0-11.6-5.2-11.6-11.6c0-0.2,0-0.5,0.1-0.6c-5-0.6-9.7-1.5-14-2.7
	c-0.2,1.1-0.3,2.2-0.3,3.4c0,14.3,11.6,25.9,25.9,25.9S128,77.4,128,63.1c0-1.2-0.1-2.3-0.3-3.4c-4.3,1.2-9.1,2.2-14,2.7
	C113.8,62.7,113.8,62.9,113.8,63.1z"/>
</svg>
